<svg viewBox="0 0 24 24" stroke-width="2" stroke="currentColor" stroke-linecap="round" stroke-linejoin="round" fill="none" width="18" height="18" xmlns="http://www.w3.org/2000/svg" xmlns:xlink="http://www.w3.org/1999/xlink">
    <g>
        <g>
            <path d="M14.1748 1.958l0 3.2168c0 0.8883 0.7201 1.6084 1.6084 1.6084l3.2168 0" />
            <path d="M6.1329 19.042l11.2587 0c0.8883 0 1.6084-0.7201 1.6084-1.6084V5.979l-4.021-4.021-7.2377 0c-0.8883 0-1.6084 0.7201-1.6084 1.6084l0 2.4126" />
            <path d="M9.1329 22.042l11.2587 0c0.8883 0 1.6084-0.7201 1.6084-1.6084V9.979" />
        </g>
        <g stroke-width="1.5" />
    </g>
    <g stroke-width="1.5">
        <path d="M5.0714 15.467l-1 0a2.5 2.5 0 0 1 0-5l1 0" />
        <path d="M8.0714 10.467l1 0a2.5 2.5 0 1 1 0 5l-1 0" />
        <line x1="4.571429" x2="8.571429" y1="12.967033" y2="12.967033" />
    </g>
</svg>