<svg viewBox="0 0 24 24" stroke-width="2" stroke="currentColor" stroke-linecap="round" stroke-linejoin="round" fill="none" width="18" height="18" xmlns="http://www.w3.org/2000/svg" xmlns:xlink="http://www.w3.org/1999/xlink">
    <g>
        <path d="M6 22h14c1.1046 0 2-0.8954 2-2V7l-5-5H8C6.8954 2 6 2.8954 6 4v2" />
        <path d="M16 2v4a2 2 0 0 0 2 2h4" />
    </g>
    <g stroke-width="1.5">
        <path d="M5.0714 16.467l-1 0a2.5 2.5 0 0 1 0-5l1 0" />
        <path d="M8.0714 11.467l1 0a2.5 2.5 0 1 1 0 5l-1 0" />
        <line x1="4.571429" x2="8.571429" y1="13.967033" y2="13.967033" />
    </g>
</svg>